<svg id="Layer_1" data-name="Layer 1" xmlns="http://www.w3.org/2000/svg" viewBox="0 0 512 512"><defs><style>.cls-1{fill:#dde5e8;}.cls-2{fill:#cad8dd;}.cls-3{fill:#a6bbbf;}</style></defs><title>speech-bubble-10-flat</title><path class="cls-1" d="M371.2,38.11H64a64,64,0,0,0-64,64V379.16C0,395,19.16,403,30.37,391.74L76.8,345.31H371.2a64,64,0,0,0,64-64V102.11A64,64,0,0,0,371.2,38.11Z"/><path class="cls-2" d="M243.2,191.71H448a64,64,0,0,1,64,64V456.06c0,15.86-19.18,23.79-30.38,12.57L435.2,422.11h-192a64,64,0,0,1-64-64V255.71A64,64,0,0,1,243.2,191.71Z"/><path class="cls-3" d="M384,281.31H307.2a12.8,12.8,0,0,1,0-25.6H384a12.8,12.8,0,0,1,0,25.6Z"/><path class="cls-3" d="M384,319.71H307.2a12.8,12.8,0,0,1,0-25.6H384a12.8,12.8,0,0,1,0,25.6Z"/><path class="cls-3" d="M384,358.11H307.2a12.8,12.8,0,0,1,0-25.6H384a12.8,12.8,0,0,1,0,25.6Z"/></svg>