<svg width="16" height="16" viewBox="0 0 16 16" fill="none" xmlns="http://www.w3.org/2000/svg">
<path d="M11.7617 8.08698C11.7617 8.29791 11.6797 8.47369 11.5156 8.61432C11.375 8.75494 11.1992 8.82526 10.9883 8.82526H3.5L0.511719 11.8487V1.33698C0.511719 1.12604 0.582031 0.950256 0.722656 0.809631C0.863281 0.669006 1.03906 0.598694 1.25 0.598694H10.9883C11.1992 0.598694 11.375 0.669006 11.5156 0.809631C11.6797 0.950256 11.7617 1.12604 11.7617 1.33698V8.08698ZM14.75 3.58698C14.9609 3.58698 15.1367 3.65729 15.2773 3.79791C15.418 3.93854 15.4883 4.11432 15.4883 4.32526V15.5753L12.5 12.587H4.23828C4.02734 12.587 3.85156 12.5167 3.71094 12.376C3.57031 12.2354 3.5 12.0596 3.5 11.8487V10.337H13.2383V3.58698H14.75Z" fill="#FAFBFF"/>
</svg>
